HIERARCHY
ROOT Hips
{
    OFFSET 0.000000 0.000000 0.000000
    CHANNELS 6 Xposition Yposition Zposition Zrotation Xrotation Yrotation
    JOINT Spine
    {
        OFFSET 0.000001 7.292995 0.000000
        CHANNELS 3 Zrotation Xrotation Yrotation
        JOINT Spine1
        {
            OFFSET -0.000000 20.255388 0.000001
            CHANNELS 3 Zrotation Xrotation Yrotation
            JOINT Neck
            {
                OFFSET 0.000001 20.786594 0.000000
                CHANNELS 3 Zrotation Xrotation Yrotation
                JOINT Head
                {
                    OFFSET 0.000003 12.530788 1.776080
                    CHANNELS 3 Zrotation Xrotation Yrotation
                    End Site
                    {
                        OFFSET 0.000000 17.760757 0.000000
                    }
                }
            }
            JOINT LeftShoulder
            {
                OFFSET 3.550532 15.465697 -0.908801
                CHANNELS 3 Zrotation Xrotation Yrotation
                JOINT LeftArm
                {
                    OFFSET 12.513301 -0.000005 0.000001
                    CHANNELS 3 Zrotation Xrotation Yrotation
                    JOINT LeftForeArm
                    {
                        OFFSET 24.225992 0.000005 0.000000
                        CHANNELS 3 Zrotation Xrotation Yrotation
                        JOINT LeftHand
                        {
                            OFFSET 20.711395 -0.000004 0.000000
                            CHANNELS 3 Zrotation Xrotation Yrotation
                            JOINT LeftHandThumb1
                            {
                                OFFSET 2.121964 -2.411326 3.375861
                                CHANNELS 3 Zrotation Xrotation Yrotation
                                JOINT LeftHandThumb2
                                {
                                    OFFSET 2.803212 -0.000001 -0.000002
                                    CHANNELS 3 Zrotation Xrotation Yrotation
                                    JOINT LeftHandThumb3
                                    {
                                        OFFSET 2.395929 0.000000 0.000000
                                        CHANNELS 3 Zrotation Xrotation Yrotation
                                        End Site
                                        {
                                            OFFSET 2.127676 0.000000 0.000000
                                        }
                                    }
                                }
                            }
                            JOINT LeftHandIndex1
                            {
                                OFFSET 8.680776 0.000004 3.375861
                                CHANNELS 3 Zrotation Xrotation Yrotation
                                JOINT LeftHandIndex2
                                {
                                    OFFSET 4.218180 -0.000002 0.000001
                                    CHANNELS 3 Zrotation Xrotation Yrotation
                                    JOINT LeftHandIndex3
                                    {
                                        OFFSET 2.109090 0.000001 -0.000000
                                        CHANNELS 3 Zrotation Xrotation Yrotation
                                        End Site
                                        {
                                            OFFSET 1.872952 0.000000 0.000000
                                        }
                                    }
                                }
                            }
                            JOINT LeftHandMiddle1
                            {
                                OFFSET 8.680775 0.000001 1.118862
                                CHANNELS 3 Zrotation Xrotation Yrotation
                                JOINT LeftHandMiddle2
                                {
                                    OFFSET 4.640000 0.000002 -0.000000
                                    CHANNELS 3 Zrotation Xrotation Yrotation
                                    JOINT LeftHandMiddle3
                                    {
                                        OFFSET 2.530906 0.000005 0.000000
                                        CHANNELS 3 Zrotation Xrotation Yrotation
                                        End Site
                                        {
                                            OFFSET 2.247544 0.000000 0.000000
                                        }
                                    }
                                }
                            }
                            JOINT LeftHandRing1
                            {
                                OFFSET 8.198514 -0.000004 -1.118859
                                CHANNELS 3 Zrotation Xrotation Yrotation
                                JOINT LeftHandRing2
                                {
                                    OFFSET 4.218182 -0.000003 -0.000001
                                    CHANNELS 3 Zrotation Xrotation Yrotation
                                    JOINT LeftHandRing3
                                    {
                                        OFFSET 2.109086 0.000004 0.000001
                                        CHANNELS 3 Zrotation Xrotation Yrotation
                                        End Site
                                        {
                                            OFFSET 1.872952 0.000000 0.000000
                                        }
                                    }
                                }
                            }
                            JOINT LeftHandPinky1
                            {
                                OFFSET 7.716242 0.000005 -3.375859
                                CHANNELS 3 Zrotation Xrotation Yrotation
                                JOINT LeftHandPinky2
                                {
                                    OFFSET 3.374535 0.000004 0.000002
                                    CHANNELS 3 Zrotation Xrotation Yrotation
                                    JOINT LeftHandPinky3
                                    {
                                        OFFSET 1.687275 0.000002 -0.000001
                                        CHANNELS 3 Zrotation Xrotation Yrotation
                                        End Site
                                        {
                                            OFFSET 1.498360 0.000000 0.000000
                                        }
                                    }
                                }
                            }
                        }
                    }
                }
            }
            JOINT RightShoulder
            {
                OFFSET -3.550531 15.465694 -0.908802
                CHANNELS 3 Zrotation Xrotation Yrotation
                JOINT RightArm
                {
                    OFFSET -12.513298 -0.000004 0.000001
                    CHANNELS 3 Zrotation Xrotation Yrotation
                    JOINT RightForeArm
                    {
                        OFFSET -24.225996 -0.000002 -0.000000
                        CHANNELS 3 Zrotation Xrotation Yrotation
                        JOINT RightHand
                        {
                            OFFSET -20.711401 0.000005 0.000001
                            CHANNELS 3 Zrotation Xrotation Yrotation
                            JOINT RightHandThumb1
                            {
                                OFFSET -2.121970 -2.411334 3.375861
                                CHANNELS 3 Zrotation Xrotation Yrotation
                                JOINT RightHandThumb2
                                {
                                    OFFSET -2.803210 0.000003 -0.000004
                                    CHANNELS 3 Zrotation Xrotation Yrotation
                                    JOINT RightHandThumb3
                                    {
                                        OFFSET -2.395930 -0.000001 0.000002
                                        CHANNELS 3 Zrotation Xrotation Yrotation
                                        End Site
                                        {
                                            OFFSET -2.127676 0.000000 0.000000
                                        }
                                    }
                                }
                            }
                            JOINT RightHandIndex1
                            {
                                OFFSET -8.680779 0.000001 3.375860
                                CHANNELS 3 Zrotation Xrotation Yrotation
                                JOINT RightHandIndex2
                                {
                                    OFFSET -4.218180 0.000000 -0.000000
                                    CHANNELS 3 Zrotation Xrotation Yrotation
                                    JOINT RightHandIndex3
                                    {
                                        OFFSET -2.109090 0.000001 -0.000000
                                        CHANNELS 3 Zrotation Xrotation Yrotation
                                        End Site
                                        {
                                            OFFSET -1.872952 0.000000 0.000000
                                        }
                                    }
                                }
                            }
                            JOINT RightHandMiddle1
                            {
                                OFFSET -8.680780 0.000001 1.118860
                                CHANNELS 3 Zrotation Xrotation Yrotation
                                JOINT RightHandMiddle2
                                {
                                    OFFSET -4.640000 -0.000002 0.000001
                                    CHANNELS 3 Zrotation Xrotation Yrotation
                                    JOINT RightHandMiddle3
                                    {
                                        OFFSET -2.530910 0.000001 -0.000000
                                        CHANNELS 3 Zrotation Xrotation Yrotation
                                        End Site
                                        {
                                            OFFSET -2.247544 0.000000 0.000000
                                        }
                                    }
                                }
                            }
                            JOINT RightHandRing1
                            {
                                OFFSET -8.198519 0.000005 -1.118860
                                CHANNELS 3 Zrotation Xrotation Yrotation
                                JOINT RightHandRing2
                                {
                                    OFFSET -4.218180 -0.000006 0.000000
                                    CHANNELS 3 Zrotation Xrotation Yrotation
                                    JOINT RightHandRing3
                                    {
                                        OFFSET -2.109090 0.000001 -0.000000
                                        CHANNELS 3 Zrotation Xrotation Yrotation
                                        End Site
                                        {
                                            OFFSET -1.872952 0.000000 0.000000
                                        }
                                    }
                                }
                            }
                            JOINT RightHandPinky1
                            {
                                OFFSET -7.716248 -0.000002 -3.375859
                                CHANNELS 3 Zrotation Xrotation Yrotation
                                JOINT RightHandPinky2
                                {
                                    OFFSET -3.374540 0.000000 0.000000
                                    CHANNELS 3 Zrotation Xrotation Yrotation
                                    JOINT RightHandPinky3
                                    {
                                        OFFSET -1.687270 0.000004 0.000001
                                        CHANNELS 3 Zrotation Xrotation Yrotation
                                        End Site
                                        {
                                            OFFSET -1.498360 0.000000 0.000000
                                        }
                                    }
                                }
                            }
                        }
                    }
                }
            }
        }
    }
    JOINT LeftUpLeg
    {
        OFFSET 8.880376 -0.000000 -0.000000
        CHANNELS 3 Zrotation Xrotation Yrotation
        JOINT LeftLeg
        {
            OFFSET -0.000001 -40.387405 -0.000001
            CHANNELS 3 Zrotation Xrotation Yrotation
            JOINT LeftFoot
            {
                OFFSET -0.000001 -36.911297 -0.000001
                CHANNELS 3 Zrotation Xrotation Yrotation
                JOINT LeftToeBase
                {
                    OFFSET -0.000002 -5.772240 13.320604
                    CHANNELS 3 Zrotation Xrotation Yrotation
                    End Site
                    {
                        OFFSET 0.000000 0.000000 3.552151
                    }
                }
            }
        }
    }
    JOINT RightUpLeg
    {
        OFFSET -8.880376 0.000000 0.000000
        CHANNELS 3 Zrotation Xrotation Yrotation
        JOINT RightLeg
        {
            OFFSET -0.000001 -40.387390 0.000000
            CHANNELS 3 Zrotation Xrotation Yrotation
            JOINT RightFoot
            {
                OFFSET 0.000002 -36.911297 -0.000001
                CHANNELS 3 Zrotation Xrotation Yrotation
                JOINT RightToeBase
                {
                    OFFSET 0.000001 -5.772238 13.320600
                    CHANNELS 3 Zrotation Xrotation Yrotation
                    End Site
                    {
                        OFFSET 0.000000 0.000000 3.552151
                    }
                }
            }
        }
    }
}
MOTION
Frames: 5
Frame Time: 0.013889
51.420383    82.680656    9.067041    4.775161    7.824720    6.756821    -0.496941    -17.776028    -1.627338    6.574383    12.409576    -2.940286    -7.109232    -8.639745    -0.933007    8.067849    5.215128    -0.596474    15.955802    0.325031    0.914956    4.435184    30.435835    -39.257423    -58.239841    15.993265    -99.679642    1.879631    -16.563522    15.393088    43.359768    22.247993    -51.049881    -26.354013    -6.137339    22.538893    -0.000000    0.000000    -0.000000    -6.289549    17.898548    6.825124    -5.983997    0.000001    -0.000012    -5.984005    -0.000007    -0.000002    -5.023330    8.965999    3.227378    -4.961781    0.000000    0.000000    -4.961794    0.000000    -0.000010    -4.505942    -8.972645    0.070994    -4.450672    -0.000000    0.000005    -4.450687    0.000000    -0.000009    -4.141622    -17.955973    0.271536    -3.939583    0.000000    -0.000006    -3.939564    -0.000006    -0.000010    7.836091    4.110619    5.661398    42.987408    28.643259    12.769958    57.292305    -1.348660    89.134056    43.222359    -27.873917    8.898374    -45.466003    21.768461    48.544479    10.951368    0.412270    -23.314034    -0.000000    0.000000    -0.000000    36.381519    14.659369    10.729041    35.019154    0.000003    0.000008    35.019154    -0.000003    -0.000009    38.424770    7.073246    5.066198    38.079666    0.000007    -0.000001    38.079678    -0.000002    -0.000000    39.958958    -6.921977    0.900682    39.609928    0.000005    -0.000001    39.609924    -0.000004    0.000000    42.568970    -13.457310    2.335331    41.140182    0.000000    0.000001    41.140198    0.000002    -0.000000    11.024209    -15.305397    -5.625754    0.000004    14.582770    -0.000000    -2.300198    5.825268    -0.313297    -0.000000    1.963870    0.000000    -11.717137    -12.561560    -11.897985    -0.000001    29.128677    0.000000    5.883014    -15.952853    4.138637    -0.000000    0.970897    0.000000    
51.874672    82.742119    9.297029    4.516208    7.686715    7.152220    -0.493718    -17.897600    -1.606167    6.549654    12.383754    -2.911295    -6.958319    -8.567818    -1.284594    8.364470    5.225492    -1.012716    16.406904    0.115998    1.041816    4.833920    29.466276    -39.663391    -58.298943    17.313738    -100.415359    2.969991    -15.367517    15.497998    43.375919    22.393776    -50.753155    -25.919760    -5.957937    22.584665    -0.000000    0.000000    -0.000000    -4.350255    17.951424    7.072704    -4.138093    -0.000000    0.000003    -4.138118    -0.000013    -0.000012    -3.521292    8.983284    3.415298    -3.478032    -0.000000    0.000005    -3.478039    0.000000    -0.000002    -3.187171    -8.986314    0.398478    -3.148018    0.000000    -0.000001    -3.148017    -0.000003    -0.000002    -2.962757    -17.977446    0.878446    -2.817988    -0.000007    0.000002    -2.817991    0.000004    -0.000006    8.335747    4.441612    5.720006    42.553551    28.312037    12.412364    52.037083    -1.967421    88.465599    46.794846    -31.397797    12.888695    -45.902035    21.492290    48.388382    10.802109    0.476586    -23.312883    -0.000000    0.000000    -0.000000    36.445488    14.647826    10.750744    35.082138    0.000006    0.000009    35.082123    -0.000006    0.000003    38.385178    7.077082    5.090014    38.040211    0.000002    0.000005    38.040203    -0.000003    0.000002    39.868050    -6.931081    1.098687    39.519245    0.000005    0.000005    39.519230    -0.000004    -0.000002    42.426258    -13.486939    2.720012    40.998287    0.000006    0.000005    40.998264    -0.000002    -0.000000    11.410357    -14.798853    -5.700895    0.000001    13.880042    -0.000000    -2.821869    6.166534    -1.681801    0.000001    1.948602    -0.000000    -11.755940    -11.777436    -12.254908    -0.000001    28.340879    0.000001    6.151873    -15.546026    4.198787    -0.000000    1.021640    0.000000    
52.563251    82.821350    9.628625    4.241131    7.511151    7.614050    -0.535607    -18.204533    -1.713976    6.500798    12.385061    -2.998568    -6.693614    -8.312626    -1.520487    8.716007    5.429571    -1.385552    17.192371    -0.149262    1.112585    5.155363    28.210144    -39.889828    -59.286446    19.110512    -101.006355    4.100501    -15.431919    15.607645    43.525375    22.403120    -50.480186    -25.267065    -5.687412    22.650894    -0.000000    0.000000    -0.000000    -1.939666    17.990305    6.328872    -1.844812    0.000004    -0.000008    -1.844801    -0.000003    0.000002    -1.708597    8.996061    3.132037    -1.687573    0.000010    -0.000003    -1.687579    -0.000007    0.000005    -1.629009    -8.996423    0.743041    -1.608960    0.000000    -0.000002    -1.608971    0.000000    -0.000003    -1.609065    -17.993311    1.498502    -1.530365    0.000003    -0.000004    -1.530352    0.000003    0.000002    8.184622    4.827418    6.208779    42.074299    28.588820    12.105497    45.906551    -2.931734    87.163162    52.541214    -34.597034    19.537664    -46.057632    21.419172    48.290894    10.780911    0.485723    -23.312687    -0.000000    0.000000    -0.000000    36.488861    14.639983    10.852149    35.124805    -0.000003    -0.000010    35.124813    0.000006    -0.000005    38.096939    7.104906    5.181788    37.752804    -0.000011    -0.000012    37.752827    0.000005    -0.000000    39.414555    -6.976234    1.458561    39.066803    -0.000005    -0.000015    39.066830    0.000006    0.000006    41.804909    -13.614894    3.403973    40.380798    -0.000007    -0.000008    40.380817    0.000003    0.000000    11.701912    -14.134854    -5.877830    0.000003    13.151870    -0.000000    -3.484118    6.444662    -3.355523    0.000002    1.888212    -0.000000    -11.933359    -10.698900    -12.722320    -0.000000    27.271935    0.000000    6.607300    -14.985775    4.419731    -0.000000    1.045242    0.000000    
53.134071    82.892082    9.881359    4.070194    7.435427    7.995315    -0.576390    -18.446119    -1.821087    6.515740    12.349917    -3.095626    -6.616101    -8.204098    -1.712907    8.875756    5.548434    -1.638168    17.599367    -0.310842    1.229506    5.344425    27.292641    -39.971836    -59.684788    20.286961    -101.460358    4.315238    -15.914181    15.440476    43.376480    22.548866    -50.462429    -24.946049    -5.553980    22.682320    -0.000000    0.000000    -0.000000    -0.222796    17.999828    5.798426    -0.211890    0.000000    -0.000003    -0.211895    0.000003    -0.000003    -0.599693    8.999527    2.958599    -0.592318    -0.000003    -0.000002    -0.592301    -0.000000    0.000010    -0.792268    -8.999159    1.087070    -0.782520    0.000000    0.000000    -0.782512    -0.000000    0.000001    -1.022772    -17.997278    2.105970    -0.972711    0.000007    0.000002    -0.972732    0.000000    -0.000004    8.127330    4.837885    6.357576    41.938805    28.861340    11.968551    42.413063    -3.652596    86.010902    56.284222    -36.083939    23.542730    -45.716694    21.704395    48.288109    10.953388    0.411396    -23.314054    -0.000000    0.000000    -0.000000    36.328300    14.668962    10.921316    34.966808    0.000008    -0.000008    34.966793    -0.000002    0.000006    37.602970    7.152173    5.257356    37.260395    0.000008    0.000002    37.260372    -0.000004    -0.000002    38.753208    -7.041285    1.772741    38.407173    0.000003    -0.000006    38.407188    0.000000    0.000011    40.971817    -13.783822    3.996444    39.553967    -0.000001    -0.000007    39.553986    0.000003    0.000006    11.754967    -13.730284    -6.186900    0.000001    12.732688    -0.000000    -3.921592    6.828249    -4.503109    0.000000    1.866818    0.000000    -12.147899    -9.882470    -13.156588    0.000001    26.392887    -0.000000    7.026717    -14.503758    4.624879    -0.000000    1.054208    0.000000    
53.710205    82.977661    10.097356    3.889229    7.374219    8.355976    -0.596202    -18.689274    -1.860015    6.457088    12.368846    -3.118484    -6.479059    -8.127618    -1.976050    9.086160    5.664401    -1.972681    17.928637    -0.501345    1.361521    5.705904    26.223305    -40.267956    -59.478210    21.274910    -102.074562    4.787896    -15.940893    15.306511    42.974319    22.906672    -50.482128    -24.798693    -5.492665    22.696505    -0.000000    0.000000    -0.000000    1.385108    17.995039    5.301596    1.317327    -0.000000    -0.000007    1.317335    -0.000003    -0.000001    0.230356    8.999940    2.828748    0.227513    0.000003    -0.000003    0.227520    -0.000010    0.000011    -0.321343    -8.999865    1.529352    -0.317398    0.000003    -0.000008    -0.317378    0.000003    0.000003    -0.906660    -17.997843    2.879074    -0.862304    0.000003    -0.000003    -0.862296    0.000000    -0.000002    7.953505    4.819699    6.427961    41.998158    29.168722    11.827525    39.998009    -4.323484    84.865791    59.424511    -36.816765    26.760221    -45.111309    22.181410    48.336529    11.231386    0.291590    -23.315756    -0.000000    0.000000    -0.000000    36.018311    14.724590    10.937877    34.661831    -0.000003    0.000012    34.661839    0.000003    -0.000003    36.931919    7.215529    5.310235    36.591591    -0.000001    0.000007    36.591591    -0.000004    -0.000001    37.899990    -7.123814    2.082423    37.556477    -0.000006    0.000010    37.556477    -0.000001    -0.000003    39.929688    -13.990849    4.576080    38.521358    -0.000004    0.000008    38.521366    0.000000    -0.000002    11.749467    -13.387017    -6.490160    0.000002    12.384141    -0.000000    -4.487450    7.458561    -5.453911    0.000000    1.904982    0.000000    -12.345172    -9.076888    -13.582628    -0.000000    25.420551    0.000000    7.467767    -13.942565    4.851091    -0.000000    1.063769    -0.000000    
